<svg width="22" height="20" viewBox="0 0 22 20" fill="none" xmlns="http://www.w3.org/2000/svg">
<path d="M10.9999 20.0004L1.80794 10.8084C-0.372058 8.24039 -0.258058 4.38839 2.16094 1.96839C3.32096 0.808399 4.87669 0.129937 6.51605 0.0691032C8.15541 0.00826927 9.75715 0.569564 10.9999 1.64039C12.2415 0.569564 13.8418 0.00747451 15.4803 0.0667538C17.1187 0.126033 18.6743 0.802302 19.8352 1.96005C20.9961 3.11779 21.6766 4.67148 21.7404 6.30977C21.8041 7.94807 21.2464 9.54994 20.1789 10.7944L10.9999 20.0004ZM18.6619 9.49139C19.4008 8.62979 19.7867 7.52083 19.7425 6.38669C19.6983 5.25255 19.2271 4.17702 18.4234 3.37559C17.6197 2.57416 16.5428 2.10604 15.4086 2.06502C14.2743 2.024 13.1664 2.41311 12.3069 3.15439L10.9999 4.28239L9.69294 3.15439C8.83345 2.41311 7.72558 2.024 6.59132 2.06502C5.45706 2.10604 4.3802 2.57416 3.57649 3.37559C2.77279 4.17702 2.30161 5.25255 2.25738 6.38669C2.21314 7.52083 2.5991 8.62979 3.33794 9.49139L3.45194 9.62339L10.9999 17.1724L18.5479 9.62339L18.6619 9.49139Z" fill="white"/>
</svg>
