<svg width="20" height="20" viewBox="0 0 20 20" fill="none" xmlns="http://www.w3.org/2000/svg">
<path d="M19.6733 17.5536C19.0305 16.9805 18.4676 16.3235 18 15.6003C17.4895 14.602 17.1835 13.5117 17.1 12.3936V9.10026C17.0973 8.70023 17.0616 8.3011 16.9933 7.90693C16.4686 7.80204 15.9643 7.61293 15.5 7.34693C15.677 7.91682 15.7669 8.51018 15.7667 9.10693V12.4003C15.8484 13.7643 16.2236 15.0946 16.8667 16.3003C17.3269 17.0296 17.8731 17.7011 18.4933 18.3003H1.42C2.04027 17.7011 2.5864 17.0296 3.04667 16.3003C3.68974 15.0946 4.06495 13.7643 4.14667 12.4003V9.10026C4.14316 8.32872 4.29187 7.56406 4.58429 6.85007C4.87672 6.13609 5.3071 5.48679 5.85081 4.93937C6.39452 4.39195 7.04087 3.95715 7.75285 3.65987C8.46483 3.36259 9.22845 3.20867 10 3.20693C11.1292 3.20783 12.233 3.54176 13.1733 4.16693C13.0697 3.78625 13.0115 3.39463 13 3.00026V2.58026C12.3039 2.23783 11.5561 2.01259 10.7867 1.91359V1.07359C10.7867 0.837551 10.6929 0.611176 10.526 0.444269C10.3591 0.277361 10.1327 0.183594 9.89667 0.183594C9.66062 0.183594 9.43425 0.277361 9.26734 0.444269C9.10043 0.611176 9.00667 0.837551 9.00667 1.07359V1.94693C7.28381 2.18996 5.70705 3.04809 4.56748 4.36288C3.42791 5.67768 2.80248 7.36035 2.80667 9.10026V12.3936C2.72317 13.5117 2.41718 14.602 1.90667 15.6003C1.44725 16.3218 0.893463 16.9788 0.26 17.5536C0.188887 17.6161 0.131894 17.693 0.0928111 17.7792C0.0537285 17.8654 0.0334527 17.9589 0.0333328 18.0536V18.9603C0.0333328 19.1371 0.103571 19.3066 0.228595 19.4317C0.353619 19.5567 0.523189 19.6269 0.7 19.6269H19.2333C19.4101 19.6269 19.5797 19.5567 19.7047 19.4317C19.8298 19.3066 19.9 19.1371 19.9 18.9603V18.0536C19.8999 17.9589 19.8796 17.8654 19.8405 17.7792C19.8014 17.693 19.7444 17.6161 19.6733 17.5536Z" fill="#DEDEDE"/>
</svg>
