<svg width="50" height="50" viewBox="0 0 50 50" fill="none" xmlns="http://www.w3.org/2000/svg">
<rect width="50" height="50" rx="8" fill="#EF3054"/>
<path d="M18.5711 20.8871C18.2846 19.0001 19.6151 17.3051 21.6476 16.6841C22.0083 16.5738 22.3975 16.6052 22.7358 16.7719C23.0742 16.9385 23.3362 17.2279 23.4686 17.5811L24.1211 19.3211C24.2262 19.601 24.2452 19.9059 24.1757 20.1967C24.1062 20.4875 23.9514 20.7509 23.7311 20.9531L21.7901 22.7306C21.6944 22.8184 21.6232 22.9295 21.5832 23.053C21.5432 23.1766 21.536 23.3084 21.5621 23.4356L21.5801 23.5136L21.6266 23.7086C21.868 24.6561 22.2358 25.5667 22.7201 26.4161C23.2477 27.3186 23.9024 28.1406 24.6641 28.8566L24.7241 28.9106C24.821 28.9966 24.9386 29.056 25.0653 29.0831C25.192 29.1102 25.3235 29.104 25.4471 29.0651L27.9566 28.2746C28.2418 28.185 28.5473 28.1828 28.8338 28.268C29.1203 28.3533 29.3748 28.5222 29.5646 28.7531L30.7526 30.1946C31.2476 30.7946 31.1876 31.6766 30.6191 32.2061C29.0636 33.6566 26.9246 33.9536 25.4366 32.7581C23.6127 31.2868 22.0751 29.4924 20.9006 27.4646C19.7167 25.4383 18.9258 23.2067 18.5696 20.8871H18.5711ZM23.1356 23.5346L24.7436 22.0586C25.1844 21.6544 25.4943 21.1277 25.6335 20.5461C25.7728 19.9645 25.735 19.3546 25.5251 18.7946L24.8741 17.0546C24.6076 16.344 24.0802 15.7617 23.3993 15.4264C22.7185 15.0911 21.9354 15.0281 21.2096 15.2501C18.6851 16.0226 16.6586 18.2861 17.0876 21.1136C17.3876 23.0876 18.0791 25.5986 19.6046 28.2206C20.8717 30.4071 22.5303 32.3419 24.4976 33.9281C26.7296 35.7206 29.7086 35.1086 31.6436 33.3056C32.1973 32.7901 32.5334 32.0827 32.5833 31.3278C32.6332 30.573 32.3931 29.8275 31.9121 29.2436L30.7241 27.8006C30.3441 27.3393 29.8349 27.0021 29.2619 26.8321C28.6889 26.6621 28.0782 26.6672 27.5081 26.8466L25.4246 27.5021C24.8867 26.9474 24.4155 26.3317 24.0206 25.6676C23.6392 24.9961 23.342 24.2802 23.1356 23.5361V23.5346Z" fill="white"/>
</svg>
