<svg width="32" height="32" viewBox="0 0 32 32" fill="none" xmlns="http://www.w3.org/2000/svg">
<path d="M7.42808 10.5161C7.04608 8.00012 8.82008 5.74012 11.5301 4.91212C12.011 4.76508 12.5299 4.80694 12.981 5.02915C13.4321 5.25137 13.7815 5.63723 13.9581 6.10812L14.8281 8.42812C14.9681 8.80134 14.9935 9.20791 14.9008 9.59563C14.8081 9.98335 14.6017 10.3345 14.3081 10.6041L11.7201 12.9741C11.5925 13.0912 11.4975 13.2393 11.4442 13.404C11.3909 13.5688 11.3812 13.7445 11.4161 13.9141L11.4401 14.0181L11.5021 14.2781C11.8239 15.5414 12.3143 16.7556 12.9601 17.8881C13.6635 19.0915 14.5364 20.1874 15.5521 21.1421L15.6321 21.2141C15.7613 21.3288 15.918 21.4081 16.0869 21.4442C16.2559 21.4803 16.4313 21.472 16.5961 21.4201L19.9421 20.3661C20.3223 20.2467 20.7296 20.2437 21.1116 20.3573C21.4936 20.471 21.833 20.6962 22.0861 21.0041L23.6701 22.9261C24.3301 23.7261 24.2501 24.9021 23.4921 25.6081C21.4181 27.5421 18.5661 27.9381 16.5821 26.3441C14.1501 24.3824 12.1 21.9899 10.5341 19.2861C8.95546 16.5844 7.901 13.609 7.42608 10.5161H7.42808ZM13.5141 14.0461L15.6581 12.0781C16.2458 11.5392 16.6589 10.8369 16.8446 10.0615C17.0303 9.28601 16.9799 8.47276 16.7001 7.72612L15.8321 5.40612C15.4768 4.45861 14.7735 3.68224 13.8657 3.23519C12.9579 2.78815 11.9137 2.70408 10.9461 3.00012C7.58008 4.03012 4.87808 7.04812 5.45008 10.8181C5.85008 13.4501 6.77208 16.7981 8.80608 20.2941C10.4955 23.2095 12.707 25.7891 15.3301 27.9041C18.3061 30.2941 22.2781 29.4781 24.8581 27.0741C25.5963 26.3868 26.0444 25.4436 26.1109 24.4371C26.1775 23.4306 25.8574 22.4367 25.2161 21.6581L23.6321 19.7341C23.1254 19.1191 22.4465 18.6694 21.6825 18.4428C20.9185 18.2162 20.1042 18.2229 19.3441 18.4621L16.5661 19.3361C15.8488 18.5966 15.2205 17.7757 14.6941 16.8901C14.1855 15.9948 13.7892 15.0403 13.5141 14.0481V14.0461Z" fill="white"/>
</svg>
