<svg width="18" height="20" viewBox="0 0 18 20" fill="none" xmlns="http://www.w3.org/2000/svg">
<path d="M2.8125 7.25C2.8125 7.06766 2.88493 6.8928 3.01386 6.76386C3.1428 6.63493 3.31766 6.5625 3.5 6.5625H9C9.18234 6.5625 9.35721 6.63493 9.48614 6.76386C9.61507 6.8928 9.6875 7.06766 9.6875 7.25C9.6875 7.43234 9.61507 7.6072 9.48614 7.73614C9.35721 7.86507 9.18234 7.9375 9 7.9375H3.5C3.31766 7.9375 3.1428 7.86507 3.01386 7.73614C2.88493 7.6072 2.8125 7.43234 2.8125 7.25ZM17.9375 3.8125V17.5625C17.9375 18.1095 17.7202 18.6341 17.3334 19.0209C16.9466 19.4077 16.422 19.625 15.875 19.625H2.125C1.57799 19.625 1.05339 19.4077 0.666592 19.0209C0.279799 18.6341 0.0625 18.1095 0.0625 17.5625V3.8125C0.0625 3.26549 0.279799 2.74089 0.666592 2.35409C1.05339 1.9673 1.57799 1.75 2.125 1.75H4.1875C4.1875 1.38533 4.33237 1.03559 4.59023 0.777728C4.84809 0.519866 5.19783 0.375 5.5625 0.375H12.4375C12.8022 0.375 13.1519 0.519866 13.4098 0.777728C13.6676 1.03559 13.8125 1.38533 13.8125 1.75H15.875C16.422 1.75 16.9466 1.9673 17.3334 2.35409C17.7202 2.74089 17.9375 3.26549 17.9375 3.8125ZM5.5625 3.125H12.4375V2.4375V1.75H5.5625V3.125ZM16.5625 3.8125C16.5625 3.63016 16.4901 3.4553 16.3611 3.32636C16.2322 3.19743 16.0573 3.125 15.875 3.125H13.8125C13.8125 3.48967 13.6676 3.83941 13.4098 4.09727C13.1519 4.35513 12.8022 4.5 12.4375 4.5H5.5625C5.19783 4.5 4.84809 4.35513 4.59023 4.09727C4.33237 3.83941 4.1875 3.48967 4.1875 3.125H2.125C1.94266 3.125 1.7678 3.19743 1.63886 3.32636C1.50993 3.4553 1.4375 3.63016 1.4375 3.8125V17.5625C1.4375 17.7448 1.50993 17.9197 1.63886 18.0486C1.7678 18.1776 1.94266 18.25 2.125 18.25H15.875C16.0573 18.25 16.2322 18.1776 16.3611 18.0486C16.4901 17.9197 16.5625 17.7448 16.5625 17.5625V3.8125ZM13.125 10H3.5C3.31766 10 3.1428 10.0724 3.01386 10.2014C2.88493 10.3303 2.8125 10.5052 2.8125 10.6875C2.8125 10.8698 2.88493 11.0447 3.01386 11.1736C3.1428 11.3026 3.31766 11.375 3.5 11.375H13.125C13.3073 11.375 13.4822 11.3026 13.6111 11.1736C13.7401 11.0447 13.8125 10.8698 13.8125 10.6875C13.8125 10.5052 13.7401 10.3303 13.6111 10.2014C13.4822 10.0724 13.3073 10 13.125 10ZM13.125 13.4375H3.5C3.31766 13.4375 3.1428 13.5099 3.01386 13.6389C2.88493 13.7678 2.8125 13.9427 2.8125 14.125C2.8125 14.3073 2.88493 14.4822 3.01386 14.6111C3.1428 14.7401 3.31766 14.8125 3.5 14.8125H13.125C13.3073 14.8125 13.4822 14.7401 13.6111 14.6111C13.7401 14.4822 13.8125 14.3073 13.8125 14.125C13.8125 13.9427 13.7401 13.7678 13.6111 13.6389C13.4822 13.5099 13.3073 13.4375 13.125 13.4375Z" fill="white"/>
</svg>
