<svg width="24" height="24" viewBox="0 0 24 24" fill="none" xmlns="http://www.w3.org/2000/svg">
<path d="M16.9409 6.6129L12.5402 2.22757C12.3965 2.08273 12.2012 2.00087 11.9972 2.00001C11.7932 1.99914 11.5972 2.07934 11.4523 2.22296L11.4477 2.22757L7.06236 6.6129H2.76936C2.56531 6.6129 2.36962 6.69396 2.22534 6.83824C2.08106 6.98252 2 7.17821 2 7.38225V21.2306C2 21.4347 2.08106 21.6304 2.22534 21.7747C2.36962 21.9189 2.56531 22 2.76936 22H21.2339C21.4379 22 21.6336 21.9189 21.7779 21.7747C21.9222 21.6304 22.0032 21.4347 22.0032 21.2306V7.38225C22.0032 7.17821 21.9222 6.98252 21.7779 6.83824C21.6336 6.69396 21.4379 6.6129 21.2339 6.6129H16.9409ZM12.0016 3.85861L14.7559 6.6129H9.24732L12.0016 3.85861ZM20.4645 20.4613H3.53871V8.15161H20.4645V20.4613ZM8.15484 12.7677C7.74675 12.7677 7.35537 12.6056 7.06681 12.3171C6.77824 12.0285 6.61613 11.6371 6.61613 11.229C6.61613 10.8209 6.77824 10.4296 7.06681 10.141C7.35537 9.85243 7.74675 9.69032 8.15484 9.69032C8.56293 9.69032 8.95431 9.85243 9.24287 10.141C9.53144 10.4296 9.69355 10.8209 9.69355 11.229C9.69355 11.6371 9.53144 12.0285 9.24287 12.3171C8.95431 12.6056 8.56293 12.7677 8.15484 12.7677ZM18.9258 18.9226H7.38549L9.69355 14.3064L11.6169 18.1532L15.079 11.229L18.9258 18.9226Z" fill="white"/>
</svg>
