<svg width="24" height="20" viewBox="0 0 24 20" fill="none" xmlns="http://www.w3.org/2000/svg">
<path d="M19.7012 0.00117611C20.2032 0.00117611 20.7003 0.100052 21.1641 0.292157C21.6279 0.484262 22.0493 0.765834 22.4043 1.1208C22.7592 1.47576 23.0408 1.89717 23.2329 2.36095C23.425 2.82473 23.5239 3.32181 23.5239 3.82381V16.1774C23.5239 16.6794 23.425 17.1764 23.2329 17.6402C23.0408 18.104 22.7592 18.5254 22.4043 18.8804C22.0493 19.2353 21.6279 19.5169 21.1641 19.709C20.7003 19.9011 20.2032 20 19.7012 20H3.82263C2.80881 20 1.8365 19.5973 1.11962 18.8804C0.40274 18.1635 0 17.1912 0 16.1774V3.82263C0 2.80881 0.40274 1.8365 1.11962 1.11962C1.8365 0.40274 2.80881 0 3.82263 0H19.7012V0.00117611ZM19.7012 1.76547H3.82263C3.27672 1.76547 2.75318 1.98233 2.36716 2.36834C1.98115 2.75435 1.76429 3.2779 1.76429 3.82381V16.1774C1.76429 17.3136 2.68643 18.2357 3.82263 18.2357H19.7012C20.2472 18.2357 20.7707 18.0188 21.1567 17.6328C21.5427 17.2468 21.7596 16.7233 21.7596 16.1774V3.82263C21.7596 3.27672 21.5427 2.75318 21.1567 2.36716C20.7707 1.98115 20.2472 1.76429 19.7012 1.76429V1.76547ZM7.07481 6.31851C7.77582 6.31851 8.27335 6.41496 8.84145 6.68784C8.92849 6.72962 9.00644 6.78814 9.07087 6.86004C9.13529 6.93195 9.18492 7.01585 9.21692 7.10694C9.24892 7.19803 9.26267 7.29453 9.25738 7.39093C9.25208 7.48733 9.22786 7.58175 9.18607 7.66878C9.14429 7.75582 9.08578 7.83378 9.01387 7.8982C8.94196 7.96263 8.85806 8.01225 8.76697 8.04426C8.67589 8.07626 8.57939 8.09 8.48298 8.08471C8.38658 8.07942 8.29217 8.05519 8.20513 8.01341C7.85227 7.84404 7.56998 7.78993 7.07481 7.78993C6.05505 7.78993 5.30581 8.72618 5.30581 9.99177C5.30581 11.2585 6.05622 12.1983 7.07481 12.1983C7.57822 12.1983 8.00517 11.9866 8.22748 11.609L8.23336 11.5914V10.7281H7.79111C7.6151 10.7281 7.44495 10.6649 7.31156 10.5501C7.17817 10.4352 7.09041 10.2764 7.06422 10.1023L7.05716 9.99412C7.05716 9.62479 7.32886 9.31898 7.68407 9.26606L7.79228 9.259H8.97083C9.34015 9.259 9.64479 9.52952 9.69772 9.88473L9.70595 9.99412L9.7036 11.8137L9.69654 11.8796L9.67184 11.9854L9.64832 12.0501C9.20489 13.0969 8.18866 13.6685 7.07481 13.6685C5.16231 13.6685 3.83557 12.0066 3.83557 9.99177C3.83557 7.97695 5.16114 6.31851 7.07481 6.31851ZM12.5018 6.46201C12.8711 6.46201 13.1769 6.73489 13.2287 7.08892L13.2369 7.19713V12.7993C13.2365 12.9847 13.1662 13.163 13.0399 13.2987C12.9137 13.4343 12.7408 13.5173 12.556 13.531C12.3712 13.5446 12.1881 13.488 12.0432 13.3724C11.8984 13.2568 11.8025 13.0908 11.7749 12.9076L11.7666 12.7993V7.19713C11.7666 6.79134 12.096 6.46201 12.5018 6.46201ZM16.0256 6.46201L18.3745 6.47024C18.5608 6.46976 18.7404 6.54004 18.8768 6.66688C19.0133 6.79371 19.0965 6.96764 19.1097 7.15349C19.1228 7.33934 19.0649 7.52325 18.9477 7.66804C18.8304 7.81282 18.6625 7.90768 18.478 7.93343L18.3698 7.94049L16.7572 7.9346V9.99765H18.0781C18.4474 9.99765 18.7532 10.2705 18.805 10.6257L18.8132 10.7339C18.8132 10.9101 18.7498 11.0804 18.6348 11.2138C18.5197 11.3472 18.3606 11.4349 18.1863 11.4608L18.0781 11.4691L16.7572 11.4679V12.7793C16.7575 12.9556 16.6945 13.126 16.5796 13.2596C16.4648 13.3933 16.3057 13.4812 16.1315 13.5074L16.0233 13.5145C15.8471 13.5147 15.6766 13.4517 15.543 13.3369C15.4094 13.222 15.3214 13.063 15.2952 12.8887L15.2882 12.7793V7.19478C15.2888 7.01883 15.3526 6.84896 15.4678 6.71601C15.5831 6.58306 15.7422 6.49586 15.9163 6.47024L16.0256 6.46201Z" fill="white"/>
</svg>
