<svg width="24" height="24" viewBox="0 0 24 24" fill="none" xmlns="http://www.w3.org/2000/svg">
<path d="M12 20.75C9.67936 20.75 7.45376 19.8281 5.81282 18.1872C4.17187 16.5462 3.25 14.3206 3.25 12C3.25 9.67936 4.17187 7.45376 5.81282 5.81282C7.45376 4.17187 9.67936 3.25 12 3.25C14.3206 3.25 16.5462 4.17187 18.1872 5.81282C19.8281 7.45376 20.75 9.67936 20.75 12C20.75 14.3206 19.8281 16.5462 18.1872 18.1872C16.5462 19.8281 14.3206 20.75 12 20.75ZM12 22C14.6522 22 17.1957 20.9464 19.0711 19.0711C20.9464 17.1957 22 14.6522 22 12C22 9.34784 20.9464 6.8043 19.0711 4.92893C17.1957 3.05357 14.6522 2 12 2C9.34784 2 6.8043 3.05357 4.92893 4.92893C3.05357 6.8043 2 9.34784 2 12C2 14.6522 3.05357 17.1957 4.92893 19.0711C6.8043 20.9464 9.34784 22 12 22Z" fill="white"/>
<path d="M7.35545 13.9588C7.499 13.8759 7.66959 13.8534 7.8297 13.8963C7.98981 13.9392 8.12632 14.044 8.2092 14.1875C8.59309 14.8529 9.14552 15.4055 9.81086 15.7895C10.4762 16.1735 11.231 16.3755 11.9992 16.375C12.7674 16.3755 13.5222 16.1735 14.1875 15.7895C14.8529 15.4055 15.4053 14.8529 15.7892 14.1875C15.8299 14.1158 15.8844 14.053 15.9496 14.0025C16.0147 13.952 16.0892 13.9148 16.1688 13.8932C16.2483 13.8716 16.3313 13.866 16.4131 13.8766C16.4948 13.8872 16.5736 13.9139 16.645 13.9551C16.7164 13.9964 16.7789 14.0513 16.829 14.1168C16.8791 14.1822 16.9157 14.257 16.9368 14.3367C16.9578 14.4163 16.9629 14.4994 16.9518 14.5811C16.9406 14.6627 16.9134 14.7414 16.8717 14.8125C16.3781 15.6679 15.6679 16.3783 14.8125 16.872C13.9572 17.3657 12.9868 17.6254 11.9992 17.625C11.0116 17.6254 10.0412 17.3657 9.18588 16.872C8.33052 16.3783 7.6203 15.6679 7.1267 14.8125C7.04383 14.669 7.02137 14.4984 7.06426 14.3383C7.10716 14.1781 7.21191 14.0416 7.35545 13.9588ZM10.7492 10.125C10.7492 11.16 10.1892 12 9.4992 12C8.8092 12 8.2492 11.16 8.2492 10.125C8.2492 9.09 8.8092 8.25 9.4992 8.25C10.1892 8.25 10.7492 9.09 10.7492 10.125ZM15.7492 10.125C15.7492 11.16 15.1892 12 14.4992 12C13.8092 12 13.2492 11.16 13.2492 10.125C13.2492 9.09 13.8092 8.25 14.4992 8.25C15.1892 8.25 15.7492 9.09 15.7492 10.125Z" fill="white"/>
</svg>
