<svg width="24" height="24" viewBox="0 0 24 24" fill="none" xmlns="http://www.w3.org/2000/svg">
<path d="M1.79618 5.61387L22.7471 4.34935C22.8613 4.34246 22.9756 4.36794 23.077 4.4229C23.1783 4.47786 23.2627 4.56011 23.3206 4.66033C23.3784 4.76056 23.4075 4.87476 23.4044 4.99001C23.4013 5.10526 23.3662 5.21696 23.3031 5.31246L11.7315 22.8248C11.6666 22.9228 11.5749 22.9996 11.4673 23.046C11.3596 23.0925 11.2406 23.1067 11.1245 23.0868C11.0083 23.067 10.8998 23.0141 10.8119 22.9343C10.7241 22.8545 10.6606 22.7512 10.6289 22.6368L8.67832 15.5384C8.6468 15.4236 8.64875 15.3024 8.68394 15.1894C8.71913 15.0764 8.78606 14.9764 8.87671 14.9014L15.4526 9.46276C15.4918 9.43039 15.5222 9.3886 15.5412 9.34116C15.5602 9.29372 15.567 9.24213 15.5611 9.19105L15.543 9.11562C15.5184 9.05021 15.4727 8.99481 15.4133 8.95845C15.3538 8.92208 15.2841 8.90687 15.2156 8.91529L15.1463 8.93235L7.10446 11.9247C6.99427 11.9654 6.87439 11.9731 6.75915 11.947C6.64391 11.9209 6.53818 11.862 6.4546 11.7774L1.40728 6.66444C1.32368 6.57991 1.26573 6.47323 1.24033 6.35713C1.21494 6.24103 1.22318 6.12043 1.26408 6.00972C1.30497 5.89901 1.37679 5.80288 1.47096 5.73279C1.56512 5.66271 1.67766 5.62164 1.79512 5.61448L1.79618 5.61387Z" fill="white"/>
</svg>
