<svg width="22" height="14" viewBox="0 0 22 14" fill="none" xmlns="http://www.w3.org/2000/svg">
<path d="M0 0V1.27273H12.7885V10.8182H8.645C8.34481 9.72427 7.30423 8.90909 6.05769 8.90909C4.81115 8.90909 3.77058 9.72427 3.47038 10.8182H2.69231V7.63636H1.34615V12.0909H3.47038C3.77058 13.1848 4.81115 14 6.05769 14C7.30423 14 8.34481 13.1848 8.645 12.0909H14.2396C14.5398 13.1848 15.5804 14 16.8269 14C18.0735 14 19.114 13.1848 19.4142 12.0909H21.5385V6.90073L21.4961 6.80082L20.1499 2.98264L20.0038 2.54545H14.1346V0H0ZM0.673077 2.54545V3.81818H6.73077V2.54545H0.673077ZM14.1346 3.81818H19.0353L20.1923 7.07955V10.8182H19.4142C19.114 9.72427 18.0735 8.90909 16.8269 8.90909C15.5804 8.90909 14.5398 9.72427 14.2396 10.8182H14.1346V3.81818ZM1.34615 5.09091V6.36364H5.38462V5.09091H1.34615ZM6.05769 10.1818C6.80952 10.1818 7.40385 10.7437 7.40385 11.4545C7.40385 12.1654 6.80952 12.7273 6.05769 12.7273C5.30587 12.7273 4.71154 12.1654 4.71154 11.4545C4.71154 10.7437 5.30587 10.1818 6.05769 10.1818ZM16.8269 10.1818C17.5788 10.1818 18.1731 10.7437 18.1731 11.4545C18.1731 12.1654 17.5788 12.7273 16.8269 12.7273C16.0751 12.7273 15.4808 12.1654 15.4808 11.4545C15.4808 10.7437 16.0751 10.1818 16.8269 10.1818Z" fill="white"/>
</svg>
