<svg width="24" height="25" viewBox="0 0 24 25" fill="none" xmlns="http://www.w3.org/2000/svg">
<g clip-path="url(#clip0_176_7683)">
<path d="M12.3333 0.5C13.8061 0.5 15 1.65127 15 3.07143C15 4.49159 13.8061 5.64286 12.3333 5.64286C10.8606 5.64286 9.66667 4.49159 9.66667 3.07143C9.66667 1.65127 10.8606 0.5 12.3333 0.5Z" fill="white"/>
<path d="M12.3333 9.92857C13.8061 9.92857 15 11.0798 15 12.5C15 13.9202 13.8061 15.0714 12.3333 15.0714C10.8606 15.0714 9.66667 13.9202 9.66667 12.5C9.66667 11.0798 10.8606 9.92857 12.3333 9.92857Z" fill="white"/>
<path d="M15 21.9286C15 20.5084 13.8061 19.3571 12.3333 19.3571C10.8606 19.3571 9.66667 20.5084 9.66667 21.9286C9.66667 23.3487 10.8606 24.5 12.3333 24.5C13.8061 24.5 15 23.3487 15 21.9286Z" fill="white"/>
</g>
<defs>
<clipPath id="clip0_176_7683">
<rect width="24" height="24" fill="white" transform="translate(24 0.5) rotate(90)"/>
</clipPath>
</defs>
</svg>
