<svg width="22" height="20" viewBox="0 0 22 20" fill="none" xmlns="http://www.w3.org/2000/svg">
<path d="M10.9999 20L1.80794 10.808C-0.372058 8.23999 -0.258058 4.38799 2.16094 1.96799C3.32096 0.808003 4.87669 0.12954 6.51605 0.0687064C8.15541 0.00787254 9.75715 0.569167 10.9999 1.63999C12.2415 0.569168 13.8418 0.00707778 15.4803 0.0663571C17.1187 0.125636 18.6743 0.801905 19.8352 1.95965C20.9961 3.11739 21.6766 4.67108 21.7404 6.30938C21.8041 7.94767 21.2464 9.54954 20.1789 10.794L10.9999 20ZM18.6619 9.49099C19.4008 8.6294 19.7867 7.52043 19.7425 6.38629C19.6983 5.25215 19.2271 4.17662 18.4234 3.37519C17.6197 2.57377 16.5428 2.10564 15.4086 2.06462C14.2743 2.0236 13.1664 2.41271 12.3069 3.15399L10.9999 4.28199L9.69294 3.15399C8.83345 2.41271 7.72558 2.0236 6.59132 2.06462C5.45706 2.10564 4.3802 2.57377 3.57649 3.37519C2.77279 4.17662 2.30161 5.25215 2.25738 6.38629C2.21314 7.52043 2.5991 8.6294 3.33794 9.49099L3.45194 9.62299L10.9999 17.172L18.5479 9.62299L18.6619 9.49099Z" fill="white"/>
</svg>
