<svg width="62" height="56" viewBox="0 0 62 56" fill="none" xmlns="http://www.w3.org/2000/svg">
<path d="M61.2989 53.4604L60.8692 52.7109L52.9923 39.0725V39.0681C54.3143 36.0747 55.0494 32.767 55.0494 29.2868C55.0494 24.623 53.7319 20.2736 51.445 16.5835C48.3275 11.5428 43.411 7.73293 37.5912 6.05271C43.1198 7.78568 47.7264 11.6044 50.4901 16.5835C52.2802 19.8055 53.2967 23.5098 53.2967 27.4538C53.2967 30.6285 52.6373 33.6549 51.4439 36.3901L40.0077 16.5824L33.4582 5.24502L33.4198 5.17359L33.3813 5.10655L32.5791 3.72743L32.1494 2.97359L31.2472 1.41205L30.8077 0.658203L30.3791 1.40655L29.4769 2.96809L29.0428 3.72194L28.322 4.96809L28.1934 5.19227L28.1549 5.2593L21.6143 16.5824L10.2483 36.2692C9.08789 33.5626 8.44833 30.5835 8.44833 27.4516C8.44833 23.5088 9.46482 19.8044 11.2549 16.5813C14.0187 11.6022 18.6253 7.78787 24.1538 6.05491C18.3351 7.73513 13.4176 11.5395 10.3 16.5813C8.01317 20.2714 6.69558 24.6208 6.69558 29.2846C6.69558 32.7219 7.41207 35.9868 8.70548 38.9472L0.758223 52.7098L0.328552 53.4593H3.00218L2.09998 55.0252L1.66592 55.7747H59.9637L59.5296 55.0252L58.6275 53.4593H61.2989V53.4604ZM57.3275 52.7098H36.8769C42.4483 51.2868 47.245 47.9263 50.5066 43.3967C50.7791 43.0197 51.0417 42.6373 51.2846 42.2461L57.3275 52.7098ZM30.8758 49.8747C23.4626 49.8747 16.8934 46.2802 12.8121 40.7373C12.5066 40.3263 12.2154 39.9066 11.9428 39.4725L25.1615 16.5824L30.0934 8.03732L30.8132 6.79117L31.6099 8.17578L36.4648 16.5824L49.7406 39.5725C49.4879 39.9593 49.2297 40.3406 48.9582 40.7087C44.8769 46.2659 38.2989 49.8747 30.8758 49.8747ZM22.4879 16.5824L28.756 5.72194L29.0758 5.17249L29.1187 5.10106L29.4769 4.47579L29.911 3.72633L30.8132 2.1604L31.7154 3.72633L32.1494 4.47579L32.5022 5.09117L32.545 5.16809H32.5494L32.9461 5.8604L39.1373 16.5824L51.0571 37.2285C50.7901 37.7824 50.4989 38.3219 50.1879 38.8472L37.334 16.5824L32.045 7.42194L31.2483 6.03732L30.8143 5.28787L30.3802 6.04172L29.6593 7.28787L24.2934 16.5824L11.4989 38.7472C11.189 38.2175 10.8978 37.6736 10.6297 37.1142L22.4879 16.5824ZM10.4011 42.1461C10.6736 42.5802 10.9593 43.0055 11.2604 43.4208C14.5209 47.9417 19.3143 51.2879 24.8703 52.7109H4.29998L10.4011 42.1461ZM1.62636 52.7098L9.09229 39.7824C9.35493 40.3406 9.64614 40.8846 9.95603 41.4153L3.43515 52.7098H1.62636ZM58.6637 55.0252H2.96372L3.87031 53.4593H57.7571L58.6637 55.0252ZM58.1912 52.7098L51.7318 41.5153C52.0417 40.9901 52.3286 40.4505 52.6011 39.9022L59.9956 52.7098H58.1912Z" fill="white"/>
</svg>
