<svg width="80" height="80" viewBox="0 0 80 80" fill="none" xmlns="http://www.w3.org/2000/svg">
<path d="M51.1199 42.8242C51.0814 42.3704 51.054 41.9825 51.0155 41.5957C50.9671 41.1122 50.9715 40.6308 51.0441 40.1506C51.0715 39.9737 51.1287 39.8045 51.2375 39.6572C51.3144 39.5539 51.41 39.4869 51.5474 39.5056C51.7012 39.5264 51.7979 39.5023 51.8562 39.7561C51.8606 39.7682 51.7034 40.8418 51.7276 41.2242C51.7144 41.4023 51.8331 42.4836 51.8649 42.844C51.8957 43.199 51.9232 43.5539 51.943 43.9089C51.966 44.3297 51.8595 44.7023 51.5595 45.0209C51.1858 45.4177 50.7605 45.7528 50.3419 46.0968C50.1023 46.2935 49.8671 46.4968 49.6342 46.7001C49.1485 47.1253 48.6518 47.5363 48.1155 47.8968C47.8408 48.0814 47.5584 48.2572 47.2704 48.4209C46.8924 48.6363 46.4902 48.8001 46.0518 48.8253C45.8078 48.8396 45.5584 48.8341 45.3188 48.7924C44.7715 48.6979 44.2452 48.5275 43.7595 48.2517C43.4133 48.055 43.3243 47.6111 43.566 47.2935C43.7869 47.0034 44.054 46.7594 44.3814 46.6045C44.699 46.4528 45.0298 46.3231 45.3638 46.2111C46.6034 45.7935 47.8463 45.3902 49.0869 44.9759C49.4759 44.8462 49.8562 44.6913 50.2463 44.566C50.7221 44.4133 50.9584 44.0682 51.0397 43.6034C51.0869 43.3264 51.0979 43.0418 51.1199 42.8242Z" fill="white"/>
<path d="M41.312 47.8427C41.3098 47.1042 41.5296 46.4306 41.8988 45.7987C42.1549 45.3614 42.4318 44.9405 42.8087 44.5954C43.1065 44.3229 43.4483 44.1185 43.8065 43.9383C44.2955 43.6922 44.7922 43.4614 45.2747 43.202C45.8824 42.8746 46.4274 42.4603 46.8681 41.9218C47.1747 41.5471 47.4131 41.1372 47.4999 40.6537C47.5274 40.4976 47.5351 40.3383 47.5549 40.1801C47.5593 40.1405 47.5692 40.1031 47.5824 40.0658C47.612 39.9834 47.6538 39.9086 47.7538 39.9207C47.8417 39.9306 47.9109 39.9998 47.9197 40.0889C47.9461 40.368 48.0021 41.2361 47.6285 42.0845C47.6208 42.1031 47.6142 42.1218 47.6054 42.1405C47.4076 42.5493 47.1329 42.9031 46.8076 43.2152C46.5131 43.4965 46.345 43.635 45.989 43.9086C45.9087 43.9823 45.6846 44.135 45.5582 44.2713C45.4977 44.3361 45.4988 44.4383 45.5637 44.4987C45.5933 44.5273 45.6307 44.5493 45.6681 44.5592C45.9681 44.7009 45.9472 44.9449 45.6043 45.1317C45.3922 45.2174 45.1791 45.3031 44.9637 45.379C44.5835 45.5119 44.212 45.6636 43.8571 45.8548C43.5736 46.0064 43.3021 46.1768 43.0582 46.3867C42.7802 46.6251 42.5604 46.9229 42.4098 47.2559C42.2692 47.5636 42.2131 47.7383 42.1494 48.2053C42.1417 48.2625 42.1362 48.3196 42.1351 48.3779C42.1164 48.9658 42.2109 49.9394 42.0911 50.0889C42.0186 50.1174 41.9813 50.0713 41.9483 50.0163C41.545 49.346 41.3142 48.6284 41.312 47.8427Z" fill="white"/>
<path d="M53.4943 38.9745C53.3943 39.2196 53.2932 39.4514 53.1954 39.6976C53.0855 39.9734 53.0482 40.2833 53.0295 40.58C52.9888 41.2251 53.0866 41.8558 53.1998 42.4855C53.213 42.5569 53.2185 42.6295 53.2251 42.702C53.2383 42.8492 53.1581 42.9712 53.1075 43.0998C53.0844 43.1613 53.0064 43.1745 52.9471 43.1284C52.891 43.0844 52.8394 43.0284 52.8031 42.9679C52.6537 42.7163 52.58 42.4361 52.5185 42.1536C52.4097 41.6635 52.3548 41.1679 52.3844 40.6657C52.4328 39.8547 52.6877 39.1185 53.1866 38.4734C53.2526 38.3877 53.3174 38.3009 53.3822 38.2152C53.468 38.1009 53.5987 38.0569 53.7174 38.1042C53.8932 38.1734 53.5174 38.9185 53.4943 38.9745Z" fill="white"/>
<path d="M53.5274 41.3209C53.4757 40.7549 53.6878 40.3352 53.9131 39.8275C54.1592 39.2747 54.5208 38.8088 55.0263 38.467C55.223 38.3352 55.4274 38.211 55.6691 38.1769C55.7559 38.1648 55.8318 38.1879 55.9021 38.2516C55.8812 38.2681 55.868 38.2824 55.8526 38.2912C55.312 38.5648 54.901 38.978 54.5823 39.4846C54.3076 39.9231 54.0922 40.3879 53.9647 40.8945C53.9043 41.1352 53.7911 41.3637 53.6999 41.5967C53.6999 41.5967 53.6999 41.5967 53.6999 41.5978C53.6834 41.6385 53.6274 41.6429 53.6021 41.6066C53.5647 41.5516 53.523 41.4582 53.5274 41.3209Z" fill="white"/>
<path d="M30.5078 42.9009C30.5462 42.4471 30.5737 42.0591 30.6121 41.6723C30.6605 41.1888 30.6561 40.7075 30.5836 40.2273C30.5561 40.0504 30.499 39.8811 30.3902 39.7339C30.3132 39.6306 30.2176 39.5635 30.0803 39.5822C29.9264 39.6031 29.8297 39.5789 29.7715 39.8328C29.7671 39.8449 29.9242 40.9185 29.9001 41.3009C29.9132 41.4789 29.7946 42.5602 29.7627 42.9207C29.7319 43.2756 29.7045 43.6306 29.6847 43.9855C29.6616 44.4064 29.7682 44.7789 30.0682 45.0976C30.4418 45.4943 30.8671 45.8295 31.2858 46.1734C31.5253 46.3701 31.7605 46.5734 31.9935 46.7767C32.4792 47.202 32.9759 47.613 33.5121 47.9734C33.7869 48.158 34.0693 48.3339 34.3572 48.4976C34.7352 48.713 35.1374 48.8767 35.5759 48.902C35.8198 48.9163 36.0693 48.9108 36.3089 48.869C36.8561 48.7745 37.3825 48.6042 37.8682 48.3284C38.2143 48.1317 38.3034 47.6877 38.0616 47.3701C37.8407 47.08 37.5737 46.8361 37.2462 46.6811C36.9286 46.5295 36.5979 46.3998 36.2638 46.2877C35.0242 45.8701 33.7814 45.4668 32.5407 45.0526C32.1517 44.9229 31.7715 44.7679 31.3814 44.6427C30.9056 44.4899 30.6693 44.1449 30.588 43.68C30.5407 43.4031 30.5297 43.1185 30.5078 42.9009Z" fill="white"/>
<path d="M40.3141 47.9198C40.3163 47.1814 40.0965 46.5078 39.7273 45.8759C39.4712 45.4385 39.1943 45.0177 38.8174 44.6726C38.5196 44.4001 38.1778 44.1957 37.8196 44.0155C37.3306 43.7693 36.8339 43.5385 36.3515 43.2792C35.7438 42.9517 35.1987 42.5374 34.7581 41.999C34.4515 41.6242 34.213 41.2144 34.1262 40.7308C34.0987 40.5748 34.091 40.4155 34.0712 40.2572C34.0668 40.2177 34.057 40.1803 34.0438 40.1429C34.0141 40.0605 33.9723 39.9858 33.8723 39.9979C33.7844 40.0078 33.7152 40.077 33.7064 40.166C33.68 40.4451 33.624 41.3133 33.9976 42.1616C34.0053 42.1803 34.0119 42.199 34.0207 42.2177C34.2185 42.6264 34.4932 42.9803 34.8185 43.2924C35.113 43.5737 35.2811 43.7122 35.6372 43.9858C35.7174 44.0594 35.9416 44.2122 36.0679 44.3484C36.1284 44.4133 36.1273 44.5155 36.0625 44.5759C36.0328 44.6045 35.9954 44.6264 35.9581 44.6363C35.6581 44.7781 35.6789 45.022 36.0218 45.2089C36.2339 45.2946 36.4471 45.3803 36.6625 45.4561C37.0427 45.5891 37.4141 45.7407 37.769 45.9319C38.0526 46.0836 38.324 46.2539 38.5679 46.4638C38.846 46.7023 39.0658 47.0001 39.2163 47.333C39.357 47.6407 39.413 47.8155 39.4767 48.2825C39.4844 48.3396 39.4899 48.3968 39.491 48.455C39.5097 49.0429 39.4152 50.0166 39.535 50.166C39.6075 50.1946 39.6449 50.1484 39.6778 50.0935C40.0822 49.4242 40.3119 48.7056 40.3141 47.9198Z" fill="white"/>
<path d="M28.1317 39.0526C28.2317 39.2977 28.3328 39.5296 28.4306 39.7757C28.5404 40.0515 28.5778 40.3614 28.5965 40.6581C28.6372 41.3032 28.5393 41.934 28.4262 42.5636C28.413 42.6351 28.4075 42.7076 28.4009 42.7801C28.3877 42.9274 28.469 43.0493 28.5185 43.1779C28.5415 43.2395 28.6196 43.2526 28.6789 43.2065C28.735 43.1625 28.7866 43.1065 28.8229 43.0461C28.9723 42.7944 29.0459 42.5142 29.1075 42.2318C29.2163 41.7417 29.2712 41.2461 29.2415 40.7439C29.1932 39.9329 28.9382 39.1966 28.4393 38.5515C28.3734 38.4658 28.3086 38.379 28.2437 38.2933C28.158 38.179 28.0273 38.1351 27.9086 38.1823C27.7339 38.2504 28.1086 38.9955 28.1317 39.0526Z" fill="white"/>
<path d="M28.0998 41.398C28.1515 40.8321 27.9394 40.4123 27.7141 39.9046C27.468 39.3519 27.1064 38.8859 26.6009 38.5442C26.4042 38.4123 26.1998 38.2881 25.9581 38.2541C25.8713 38.242 25.7954 38.2651 25.7251 38.3288C25.746 38.3453 25.7592 38.3596 25.7745 38.3684C26.3152 38.642 26.7262 39.0552 27.0449 39.5618C27.3196 40.0002 27.535 40.4651 27.6625 40.9716C27.7229 41.2123 27.8361 41.4409 27.9273 41.6738C27.9273 41.6738 27.9273 41.6738 27.9273 41.6749C27.9438 41.7156 27.9998 41.72 28.0251 41.6837C28.0625 41.6288 28.1042 41.5354 28.0998 41.398Z" fill="white"/>
<path d="M41.0463 40.8715C41.0463 40.8715 36.7935 40.3122 35.143 36.0869C33.4924 31.8616 36.4584 27.5814 38.0946 26.6583C38.0946 26.6583 35.8144 30.454 37.6243 32.0023C39.4331 33.5507 41.1309 31.0507 40.4408 27.7869C39.7507 24.5221 39.0232 21.6869 40.3848 19.5605C40.3848 19.5605 39.7133 21.5935 41.3551 24.4474C42.9968 27.3012 45.4397 30.51 43.9287 33.9419C42.4177 37.3737 40.4968 37.766 41.0463 40.8715Z" fill="white"/>
<path d="M35.8702 31.3867C35.6724 33.9395 38.2208 36.1428 40.5427 34.0351C42.8647 31.9274 41.9142 28.0571 40.5427 24.5593C39.5076 21.9186 39.9449 20.4164 40.2218 19.8384C39.0867 21.9318 39.7801 24.6626 40.4405 27.7867C41.1306 31.0505 39.4328 33.5505 37.624 32.0021C35.8142 30.4538 38.0944 26.6582 38.0944 26.6582C38.0944 26.6582 36.068 28.8329 35.8702 31.3867Z" fill="#73777A" fill-opacity="0.4"/>
<path d="M43.9288 33.9418C44.8508 31.8484 44.3002 29.8396 43.3596 27.9429C43.4123 28.0638 44.4563 30.5473 43.2013 32.7846C41.9145 35.0791 38.8925 37.5692 41.0475 40.8703C40.4969 37.7659 42.4178 37.3736 43.9288 33.9418Z" fill="#73777A"/>
<path d="M42.0757 37.5188C42.0757 37.5188 45.8834 34.8584 44.968 31.2001C44.0526 27.5419 41.7713 24.4001 44.4614 21.9023C44.4614 21.9023 42.8801 23.8034 45.2504 27.3859C47.6207 30.9672 48.3383 35.6749 42.0757 37.5188Z" fill="#505559" fill-opacity="0.5"/>
<path d="M45.8955 33.222C46.2779 31.8418 45.6273 30.0648 44.0834 26.7846C42.7482 23.9484 44.0043 22.3681 44.368 21.9912C41.8262 24.4747 44.0636 27.5846 44.968 31.2C45.8834 34.8582 42.0757 37.5187 42.0757 37.5187C44.1702 36.322 45.513 34.6022 45.8955 33.222Z" fill="#73777A" fill-opacity="0.4"/>
<path d="M48.61 65.0341C49.4023 65.4341 50.2188 65.6824 51.0859 65.7638C51.687 65.8198 52.2815 65.7835 52.8595 65.5956C53.4012 65.4198 53.8584 65.1176 54.2232 64.678C54.2628 64.6297 54.3056 64.5835 54.3474 64.5363C54.365 64.5517 54.3793 64.5583 54.3837 64.5682C54.5551 65.0341 54.6452 64.9088 54.1946 65.2462C53.199 65.9912 52.0672 66.1934 50.8551 66.0429C50.0496 65.9429 49.287 65.6956 48.5529 65.3572C48.4518 65.311 48.3782 65.2846 48.2694 65.3747C46.4518 66.8857 43.8188 65.9418 43.4034 63.6165C43.2133 62.555 43.3298 61.5253 43.9782 60.6154C44.4265 59.9868 45.0639 59.6605 45.8166 59.5704C46.7177 59.4627 47.5683 59.5912 48.2804 60.2143C48.8672 60.7286 49.1386 61.4099 49.2452 62.1616C49.3727 63.0572 49.2771 63.9231 48.8133 64.722C48.7562 64.8209 48.6892 64.9132 48.61 65.0341ZM48.3067 64.8835C48.3848 64.7693 48.454 64.6791 48.5111 64.5824C48.943 63.8407 49.0144 63.0385 48.9122 62.2055C48.732 60.7418 47.7968 59.8769 46.3551 59.8484C45.0859 59.8231 44.1716 60.4769 43.8276 61.6638C43.6771 62.1824 43.6474 62.7132 43.6892 63.2517C43.8188 64.8879 45.0287 65.9165 46.6584 65.7605C47.1935 65.7088 47.6705 65.5066 48.0727 65.1198C47.7672 64.9154 47.4804 64.7231 47.1815 64.5231C47.2639 64.4286 47.3276 64.3561 47.3914 64.2835C47.6979 64.4835 47.9892 64.6747 48.3067 64.8835Z" fill="white"/>
<path d="M48.61 65.0341C49.4023 65.4341 50.2188 65.6824 51.0859 65.7638C51.687 65.8198 52.2815 65.7835 52.8595 65.5956C53.4012 65.4198 53.8584 65.1176 54.2232 64.678C54.2628 64.6297 54.3056 64.5835 54.3474 64.5363C54.365 64.5517 54.3793 64.5583 54.3837 64.5682C54.5551 65.0341 54.6452 64.9088 54.1946 65.2462C53.199 65.9912 52.0672 66.1934 50.8551 66.0429C50.0496 65.9429 49.287 65.6956 48.5529 65.3572C48.4518 65.311 48.3782 65.2846 48.2694 65.3747C46.4518 66.8857 43.8188 65.9418 43.4034 63.6165C43.2133 62.555 43.3298 61.5253 43.9782 60.6154C44.4265 59.9868 45.0639 59.6605 45.8166 59.5704C46.7177 59.4627 47.5683 59.5912 48.2804 60.2143C48.8672 60.7286 49.1386 61.4099 49.2452 62.1616C49.3727 63.0572 49.2771 63.9231 48.8133 64.722C48.7562 64.8209 48.6892 64.9132 48.61 65.0341ZM48.3067 64.8835C48.3848 64.7693 48.454 64.6791 48.5111 64.5824C48.943 63.8407 49.0144 63.0385 48.9122 62.2055C48.732 60.7418 47.7968 59.8769 46.3551 59.8484C45.0859 59.8231 44.1716 60.4769 43.8276 61.6638C43.6771 62.1824 43.6474 62.7132 43.6892 63.2517C43.8188 64.8879 45.0287 65.9165 46.6584 65.7605C47.1935 65.7088 47.6705 65.5066 48.0727 65.1198C47.7672 64.9154 47.4804 64.7231 47.1815 64.5231C47.2639 64.4286 47.3276 64.3561 47.3914 64.2835C47.6979 64.4835 47.9892 64.6747 48.3067 64.8835Z" stroke="white" stroke-width="0.5" stroke-miterlimit="10"/>
<path d="M27.969 60.844C27.2624 62.1759 26.5569 63.5067 25.8317 64.8748L23.6943 60.8451C23.6646 60.8517 23.6679 60.8506 23.6383 60.8572C23.5372 62.6045 23.2602 64.3396 23.2789 66.1067H22.8394C22.9372 65.0287 23.0372 63.9517 23.1306 62.8748C23.224 61.8034 23.3108 60.732 23.4438 59.6484C24.235 61.1484 25.0251 62.6473 25.8317 64.177C26.635 62.6528 27.424 61.1572 28.213 59.6616C28.4822 61.81 28.5591 63.9649 28.8536 66.1067H28.3822C28.4152 64.344 28.1262 62.6078 28.0273 60.8572C27.9965 60.8506 27.9998 60.8517 27.969 60.844Z" fill="white"/>
<path d="M27.969 60.844C27.2624 62.1759 26.5569 63.5067 25.8317 64.8748L23.6943 60.8451C23.6646 60.8517 23.6679 60.8506 23.6383 60.8572C23.5372 62.6045 23.2602 64.3396 23.2789 66.1067H22.8394C22.9372 65.0287 23.0372 63.9517 23.1306 62.8748C23.224 61.8034 23.3108 60.732 23.4438 59.6484C24.235 61.1484 25.0251 62.6473 25.8317 64.177C26.635 62.6528 27.424 61.1572 28.213 59.6616C28.4822 61.81 28.5591 63.9649 28.8536 66.1067H28.3822C28.4152 64.344 28.1262 62.6078 28.0273 60.8572C27.9965 60.8506 27.9998 60.8517 27.969 60.844Z" stroke="white" stroke-width="0.5" stroke-miterlimit="10"/>
<path d="M56.0221 61.5889H58.2462V61.9306H56.0221V63.6966C56.944 63.6614 57.866 63.7746 58.7858 63.5724C58.7858 63.5966 58.7891 63.6175 58.7858 63.6361C58.7627 63.7482 58.7385 63.8603 58.7111 63.9845H55.6792V59.5361H58.599C58.6297 59.6735 58.6616 59.812 58.688 59.9295C58.244 59.8966 57.8056 59.8515 57.366 59.8361C56.9221 59.8196 56.477 59.8328 56.021 59.8328C56.0221 60.4284 56.0221 60.9889 56.0221 61.5889Z" fill="white"/>
<path d="M56.0221 61.5889H58.2462V61.9306H56.0221V63.6966C56.944 63.6614 57.866 63.7746 58.7858 63.5724C58.7858 63.5966 58.7891 63.6175 58.7858 63.6361C58.7627 63.7482 58.7385 63.8603 58.7111 63.9845H55.6792V59.5361H58.599C58.6297 59.6735 58.6616 59.812 58.688 59.9295C58.244 59.8966 57.8056 59.8515 57.366 59.8361C56.9221 59.8196 56.477 59.8328 56.021 59.8328C56.0221 60.4284 56.0221 60.9889 56.0221 61.5889Z" stroke="white" stroke-width="0.5" stroke-miterlimit="10"/>
<path d="M38.087 59.9868C37.2574 60.0055 36.4508 59.9308 35.6299 60.1593C35.6716 60.0231 35.7002 59.8956 35.7541 59.7791C35.7727 59.7396 35.8552 59.7077 35.9079 59.7077C37.4694 59.7044 39.031 59.7033 40.5925 59.7099C40.653 59.7099 40.731 59.7813 40.7683 59.8407C40.8167 59.9165 40.8321 60.0132 40.8716 60.1275C40.0606 59.9143 39.2519 60.0132 38.4068 59.9857C38.4464 62.0374 38.3508 64.0703 38.4694 66.1066H38.0178C38.0409 65.6571 38.0826 65.2121 38.0848 64.767C38.0936 63.2626 38.0881 61.7582 38.0881 60.2539V59.9868H38.087Z" fill="white"/>
<path d="M38.087 59.9868C37.2574 60.0055 36.4508 59.9308 35.6299 60.1593C35.6716 60.0231 35.7002 59.8956 35.7541 59.7791C35.7727 59.7396 35.8552 59.7077 35.9079 59.7077C37.4694 59.7044 39.031 59.7033 40.5925 59.7099C40.653 59.7099 40.731 59.7813 40.7683 59.8407C40.8167 59.9165 40.8321 60.0132 40.8716 60.1275C40.0607 59.9143 39.2519 60.0132 38.4068 59.9857C38.4464 62.0374 38.3508 64.0703 38.4694 66.1066H38.0178C38.0409 65.6571 38.0826 65.2121 38.0848 64.767C38.0936 63.2626 38.0881 61.7582 38.0881 60.2539V59.9868H38.087Z" stroke="white" stroke-width="0.5" stroke-miterlimit="10"/>
<path d="M50.2681 59.5361H50.6384C50.6296 60.401 50.6142 61.2174 50.6164 62.0328C50.6175 62.2647 50.6439 62.5043 50.7043 62.7284C50.8846 63.3955 51.4285 63.7768 52.1417 63.7658C52.8252 63.7548 53.3362 63.3559 53.5076 62.6933C53.5362 62.5834 53.5615 62.4691 53.5626 62.357C53.567 61.4394 53.5648 60.5218 53.5648 59.7087H53.7252H53.9241C53.9032 60.5515 53.9241 61.5196 53.8538 62.4812C53.7516 63.8757 52.2087 64.5801 51.0472 63.7922C50.5131 63.4306 50.3395 62.8801 50.3164 62.2746C50.2955 61.7405 50.3142 61.2065 50.3076 60.6713C50.3021 60.3087 50.2824 59.9482 50.2681 59.5361Z" fill="white"/>
<path d="M50.2681 59.5361H50.6384C50.6296 60.401 50.6142 61.2174 50.6164 62.0328C50.6175 62.2647 50.6439 62.5043 50.7043 62.7284C50.8846 63.3955 51.4285 63.7768 52.1417 63.7658C52.8252 63.7548 53.3362 63.3559 53.5076 62.6933C53.5362 62.5834 53.5615 62.4691 53.5626 62.357C53.567 61.4394 53.5648 60.5218 53.5648 59.7087H53.7252H53.9241C53.9032 60.5515 53.9241 61.5196 53.8538 62.4812C53.7516 63.8757 52.2087 64.5801 51.0472 63.7922C50.5131 63.4306 50.3395 62.8801 50.3164 62.2746C50.2955 61.7405 50.3142 61.2065 50.3076 60.6713C50.3021 60.3087 50.2824 59.9482 50.2681 59.5361Z" stroke="white" stroke-width="0.5" stroke-miterlimit="10"/>
<path d="M36.5494 62.2474C36.4944 62.3474 36.4384 62.4518 36.3779 62.5617C35.845 61.9947 35.0757 61.8287 34.3955 62.1233C34.0922 62.2551 33.8911 62.4628 33.8911 62.8189C33.8911 63.1639 34.0944 63.3661 34.3911 63.4606C34.7625 63.5793 35.1483 63.6529 35.5252 63.7518C35.7515 63.8112 35.9812 63.8672 36.1988 63.9529C37.1142 64.3112 36.9559 65.3672 36.3812 65.7573C36.0351 65.9925 35.6505 66.1057 35.2351 66.1057C34.6428 66.1068 34.0933 65.9672 33.6208 65.5903C33.5713 65.5507 33.5252 65.5046 33.4823 65.4573C33.4548 65.4265 33.4351 65.3892 33.4043 65.3441C33.4746 65.2518 33.5428 65.1628 33.612 65.0705C34.1889 65.8452 34.9592 65.9463 35.8109 65.7145C36.2801 65.587 36.5329 65.2683 36.5252 64.8925C36.5197 64.6452 36.4241 64.4244 36.1944 64.3364C35.812 64.1903 35.4131 64.0859 35.0197 63.9672C34.7417 63.8826 34.4537 63.8233 34.1834 63.7178C33.3241 63.3837 33.4669 62.3672 34.0164 61.9991C34.6933 61.5507 36.0098 61.6562 36.5494 62.2474Z" fill="white"/>
<path d="M36.5494 62.2474C36.4944 62.3474 36.4384 62.4518 36.3779 62.5617C35.845 61.9947 35.0757 61.8287 34.3955 62.1233C34.0922 62.2551 33.8911 62.4628 33.8911 62.8189C33.8911 63.1639 34.0944 63.3661 34.3911 63.4606C34.7625 63.5793 35.1483 63.6529 35.5252 63.7518C35.7515 63.8112 35.9812 63.8672 36.1988 63.9529C37.1142 64.3112 36.9559 65.3672 36.3812 65.7573C36.0351 65.9925 35.6505 66.1057 35.2351 66.1057C34.6428 66.1068 34.0933 65.9672 33.6208 65.5903C33.5713 65.5507 33.5252 65.5046 33.4823 65.4573C33.4548 65.4265 33.4351 65.3892 33.4043 65.3441C33.4746 65.2518 33.5428 65.1628 33.612 65.0705C34.1889 65.8452 34.9592 65.9463 35.8109 65.7145C36.2801 65.587 36.5329 65.2683 36.5252 64.8925C36.5197 64.6452 36.4241 64.4244 36.1944 64.3364C35.812 64.1903 35.4131 64.0859 35.0197 63.9672C34.7417 63.8826 34.4537 63.8233 34.1834 63.7178C33.3241 63.3837 33.4669 62.3672 34.0164 61.9991C34.6933 61.5507 36.0098 61.6562 36.5494 62.2474Z" stroke="white" stroke-width="0.5" stroke-miterlimit="10"/>
<path d="M29.1968 61.6582H29.6572C29.6572 61.6582 30.655 63.2835 31.1682 64.0956C31.6693 63.2846 32.6803 61.8285 32.6803 61.8285C32.6803 61.8285 32.7561 61.8285 32.8243 61.8285C32.9122 61.8285 33.0001 61.8285 33.0649 61.8285C32.521 62.645 31.9759 63.4582 31.4396 64.2769C31.3704 64.3824 31.3319 64.5055 31.3308 64.6318C31.3264 65.1208 31.3407 65.6098 31.3484 66.1055H31.0023C31.0023 65.5604 31.0056 65.0263 30.999 64.4934C30.9979 64.4153 30.9748 64.3395 30.933 64.2736C30.4506 63.5175 29.9627 62.7637 29.4737 62.012C29.4001 61.8989 29.3067 61.7967 29.1968 61.6582Z" fill="white"/>
<path d="M29.1968 61.6582H29.6572C29.6572 61.6582 30.655 63.2835 31.1682 64.0956C31.6693 63.2846 32.6803 61.8285 32.6803 61.8285C32.6803 61.8285 32.7561 61.8285 32.8243 61.8285C32.9122 61.8285 33.0001 61.8285 33.0649 61.8285C32.521 62.645 31.9759 63.4582 31.4396 64.2769C31.3704 64.3824 31.3319 64.5055 31.3308 64.6318C31.3264 65.1208 31.3407 65.6098 31.3484 66.1055H31.0023C31.0023 65.5604 31.0056 65.0263 30.999 64.4934C30.9979 64.4153 30.9748 64.3395 30.933 64.2736C30.4506 63.5175 29.9627 62.7637 29.4737 62.012C29.4001 61.8989 29.3067 61.7967 29.1968 61.6582Z" stroke="white" stroke-width="0.5" stroke-miterlimit="10"/>
<path d="M41.8123 59.7759H42.2892C42.1903 61.8836 42.2024 63.9825 42.2804 66.1066H42.0694H41.8101C41.9859 65.0495 41.9079 63.9957 41.9079 62.9451C41.9079 61.8913 41.9859 60.8341 41.8123 59.7759Z" fill="white"/>
<path d="M41.8123 59.7759H42.2892C42.1903 61.8836 42.2024 63.9825 42.2804 66.1066H42.0694H41.8101C41.9859 65.0495 41.9079 63.9957 41.9079 62.9451C41.9079 61.8913 41.9859 60.8341 41.8123 59.7759Z" stroke="white" stroke-width="0.5" stroke-miterlimit="10"/>
<path d="M58.0616 73.6021L58.2539 74.0988C57.5814 74.5571 56.8561 74.8582 56.0594 74.9659C54.6814 75.1527 53.3836 74.9373 52.2209 74.1318C51.3902 73.556 50.8308 72.767 50.4836 71.8252C50.4242 71.6626 50.3506 71.6054 50.1726 71.6098C49.6067 71.623 49.0407 71.6131 48.4748 71.612C48.388 71.612 48.3012 71.612 48.2198 71.612C48.133 72.0516 48.199 74.4252 48.31 74.9824H47.7451C47.8561 72.5714 47.844 70.1615 47.7506 67.7241C47.8209 67.7241 47.9539 67.7219 48.0869 67.7241C48.9605 67.7362 49.8352 67.7208 50.7056 67.7703C51.9154 67.8395 52.7132 68.8681 52.3913 70.0417C52.1858 70.7901 51.5671 71.3538 50.8165 71.5549C50.8012 71.5593 50.7858 71.5637 50.7693 71.5681C51.3034 73.0989 52.3242 74.112 53.877 74.534C55.4067 74.9505 56.8264 74.7351 58.0616 73.6021ZM48.0693 71.2098C48.7836 71.2098 49.4682 71.2098 50.1528 71.2098C50.2682 71.2098 50.3847 71.2087 50.499 71.1988C51.4067 71.1131 52.0012 70.4263 51.9913 69.4791C51.9825 68.6043 51.4143 68.0186 50.4858 67.978C49.7198 67.945 48.9517 67.9582 48.1836 67.9527C48.1462 67.9527 48.1089 67.9714 48.0682 67.9813V71.2098H48.0693Z" fill="white"/>
<path d="M58.0616 73.6021L58.2539 74.0988C57.5814 74.5571 56.8561 74.8582 56.0594 74.9659C54.6814 75.1527 53.3836 74.9373 52.2209 74.1318C51.3902 73.556 50.8308 72.767 50.4836 71.8252C50.4242 71.6626 50.3506 71.6054 50.1726 71.6098C49.6067 71.623 49.0407 71.6131 48.4748 71.612C48.388 71.612 48.3012 71.612 48.2198 71.612C48.133 72.0516 48.199 74.4252 48.31 74.9824H47.7451C47.8561 72.5714 47.844 70.1615 47.7506 67.7241C47.8209 67.7241 47.9539 67.7219 48.0869 67.7241C48.9605 67.7362 49.8352 67.7208 50.7056 67.7703C51.9154 67.8395 52.7132 68.8681 52.3913 70.0417C52.1858 70.7901 51.5671 71.3538 50.8165 71.5549C50.8012 71.5593 50.7858 71.5637 50.7693 71.5681C51.3034 73.0989 52.3242 74.112 53.877 74.534C55.4067 74.9505 56.8264 74.7351 58.0616 73.6021ZM48.0693 71.2098C48.7836 71.2098 49.4682 71.2098 50.1528 71.2098C50.2682 71.2098 50.3847 71.2087 50.499 71.1988C51.4067 71.1131 52.0012 70.4263 51.9913 69.4791C51.9825 68.6043 51.4143 68.0186 50.4858 67.978C49.7198 67.945 48.9517 67.9582 48.1836 67.9527C48.1462 67.9527 48.1089 67.9714 48.0682 67.9813V71.2098H48.0693Z" stroke="white" stroke-width="0.5" stroke-miterlimit="10"/>
<path d="M42.5925 69.1604C41.7727 70.7054 40.953 72.2505 40.1101 73.8384C39.2673 72.2494 38.4475 70.7054 37.6288 69.1604C37.6079 69.1648 37.5881 69.1681 37.5672 69.1725C37.4574 71.1955 37.1299 73.2032 37.1508 75.2461H36.6079C36.9552 72.7868 37.0387 70.2813 37.3134 67.7252C38.2563 69.5153 39.1694 71.2472 40.1101 73.0307C41.0431 71.2604 41.9585 69.5252 42.9079 67.7241C43.1804 70.2813 43.2694 72.7835 43.6123 75.4428H43.1211C43.0486 74.2285 42.9826 73.2109 42.9024 72.1934C42.8233 71.1857 42.731 70.1791 42.6442 69.1714C42.6277 69.1681 42.6101 69.1637 42.5925 69.1604Z" fill="white"/>
<path d="M42.5925 69.1604C41.7727 70.7054 40.953 72.2505 40.1101 73.8384C39.2673 72.2494 38.4475 70.7054 37.6288 69.1604C37.6079 69.1648 37.5881 69.1681 37.5672 69.1725C37.4574 71.1955 37.1299 73.2032 37.1508 75.2461H36.6079C36.9552 72.7868 37.0387 70.2813 37.3134 67.7252C38.2563 69.5153 39.1694 71.2472 40.1101 73.0307C41.0431 71.2604 41.9585 69.5252 42.9079 67.7241C43.1804 70.2813 43.2694 72.7835 43.6123 75.4428H43.1211C43.0486 74.2285 42.9826 73.2109 42.9024 72.1934C42.8233 71.1857 42.731 70.1791 42.6442 69.1714C42.6277 69.1681 42.6101 69.1637 42.5925 69.1604Z" stroke="white" stroke-width="0.5" stroke-miterlimit="10"/>
<path d="M68.3044 72.5483C69.3824 72.5021 70.4451 72.6373 71.5198 72.3977C71.4868 72.5626 71.4561 72.7131 71.422 72.878H67.9077V67.7241H71.2901C71.3264 67.8835 71.3627 68.0428 71.4022 68.2186C70.3693 67.9945 69.3418 68.0868 68.3044 68.0648C68.3044 68.7582 68.3044 69.2098 68.3044 69.9054H70.8813V70.3021H68.3044C68.3044 70.9977 68.3044 71.8263 68.3044 72.5483Z" fill="white"/>
<path d="M68.3044 72.5483C69.3824 72.5021 70.4451 72.6373 71.5198 72.3978C71.4868 72.5626 71.4561 72.7131 71.422 72.878H67.9077V67.7241H71.2901C71.3264 67.8835 71.3627 68.0428 71.4022 68.2186C70.3693 67.9945 69.3418 68.0868 68.3044 68.0648C68.3044 68.7582 68.3044 69.2098 68.3044 69.9054H70.8813V70.3021H68.3044C68.3044 70.9977 68.3044 71.8263 68.3044 72.5483Z" stroke="white" stroke-width="0.5" stroke-miterlimit="10"/>
<path d="M71.8848 74.5284C71.832 74.6976 71.7771 74.8745 71.7188 75.0603H65.3057C65.4189 72.6207 65.4101 70.1921 65.3112 67.7251H65.5573H65.8628C65.6606 68.8921 65.7606 70.0581 65.7463 71.2185C65.732 72.3778 65.743 73.5361 65.743 74.7471C67.7914 74.657 69.832 74.8987 71.8848 74.5284Z" fill="white"/>
<path d="M71.8848 74.5284C71.832 74.6976 71.7771 74.8745 71.7188 75.0603H65.3057C65.4189 72.6207 65.4101 70.1921 65.3112 67.7251H65.5573H65.8628C65.6606 68.8921 65.7606 70.0581 65.7463 71.2185C65.732 72.3778 65.743 73.5361 65.743 74.7471C67.7914 74.657 69.832 74.8987 71.8848 74.5284Z" stroke="white" stroke-width="0.5" stroke-miterlimit="10"/>
<path d="M55.4848 67.7251C56.2716 69.4745 57.042 71.1866 57.8112 72.8328H57.2233C57.1881 72.3229 56.9233 71.824 56.6903 71.3163C56.665 71.2603 56.5683 71.2042 56.5046 71.2031C55.8277 71.1954 55.1508 71.1954 54.4727 71.2031C54.4079 71.2042 54.3112 71.2603 54.2859 71.3174C54.0562 71.8262 53.7848 72.3207 53.7497 73.0306H53.1694C53.9321 71.1965 54.7013 69.4767 55.4848 67.7251ZM56.5189 70.8504C56.1727 70.0537 55.8387 69.2855 55.4837 68.4691C55.1288 69.2943 54.8002 70.0614 54.4606 70.8504H56.5189Z" fill="white"/>
<path d="M55.4848 67.7251C56.2716 69.4745 57.042 71.1866 57.8112 72.8328H57.2233C57.1881 72.3229 56.9233 71.824 56.6903 71.3163C56.665 71.2603 56.5683 71.2042 56.5046 71.2031C55.8277 71.1954 55.1508 71.1954 54.4727 71.2031C54.4079 71.2042 54.3112 71.2603 54.2859 71.3174C54.0562 71.8262 53.7848 72.3207 53.7497 73.0306H53.1694C53.9321 71.1965 54.7013 69.4767 55.4848 67.7251ZM56.5189 70.8504C56.1727 70.0537 55.8387 69.2855 55.4837 68.4691C55.1288 69.2943 54.8002 70.0614 54.4606 70.8504H56.5189Z" stroke="white" stroke-width="0.5" stroke-miterlimit="10"/>
<path d="M63.6175 68.7441C62.5911 67.7551 60.99 67.8771 60.2351 68.6694C59.4526 69.4903 59.4307 71.0298 60.1768 71.9057C60.823 72.6639 62.4098 73.0079 63.6241 71.9046C63.7845 72.3276 63.7878 72.3419 63.4098 72.5298C62.3351 73.0639 61.2647 73.1167 60.2449 72.4112C59.4021 71.8276 59.0482 70.6859 59.3252 69.5958C59.5735 68.6199 60.3944 67.9057 61.4065 67.7606C62.1197 67.6584 62.7856 67.7848 63.4175 68.1167C63.7834 68.3057 63.7933 68.3485 63.6175 68.7441Z" fill="white"/>
<path d="M63.6175 68.7441C62.5911 67.7551 60.99 67.8771 60.2351 68.6694C59.4526 69.4903 59.4307 71.0298 60.1768 71.9057C60.823 72.6639 62.4098 73.0079 63.6241 71.9046C63.7845 72.3276 63.7878 72.3419 63.4098 72.5298C62.3351 73.0639 61.2647 73.1167 60.2449 72.4112C59.4021 71.8276 59.0482 70.6859 59.3252 69.5958C59.5735 68.6199 60.3944 67.9057 61.4065 67.7606C62.1197 67.6584 62.7856 67.7848 63.4175 68.1167C63.7834 68.3057 63.7933 68.3485 63.6175 68.7441Z" stroke="white" stroke-width="0.5" stroke-miterlimit="10"/>
<path d="M45.8888 75.0593H45.3569C45.4657 72.612 45.4635 70.1703 45.358 67.7241H45.8668C45.8448 68.3505 45.8086 68.9692 45.8042 69.5879C45.7965 71.0186 45.7987 72.4494 45.8097 73.8791C45.813 74.2692 45.8602 74.6593 45.8888 75.0593Z" fill="white"/>
<path d="M45.8888 75.0593H45.3569C45.4657 72.612 45.4635 70.1703 45.358 67.7241H45.8668C45.8448 68.3505 45.8086 68.9692 45.8042 69.5879C45.7965 71.0186 45.7987 72.4494 45.8097 73.8791C45.813 74.2692 45.8602 74.6593 45.8888 75.0593Z" stroke="white" stroke-width="0.5" stroke-miterlimit="10"/>
<path d="M20.231 75.3651C20.4837 73.6123 20.4848 69.82 20.2386 67.9596C20.2507 67.9519 20.2639 67.9354 20.2771 67.9365C21.398 67.9596 22.5332 67.8816 23.6376 68.0299C25.3903 68.2673 26.4211 69.5145 26.5167 71.2849C26.5529 71.9585 26.4969 72.6211 26.2463 73.2552C25.8178 74.3398 25.0068 74.9882 23.8837 75.2299C22.676 75.4892 21.4518 75.298 20.231 75.3651ZM20.8903 75.0387C21.8277 75.0057 22.754 75.0211 23.6683 74.9255C24.5123 74.8376 25.2156 74.4178 25.6947 73.6881C26.2156 72.8947 26.3002 72.0068 26.209 71.0947C26.0595 69.5991 25.1365 68.5673 23.6485 68.375C22.754 68.2596 21.8376 68.3189 20.931 68.3024C20.9178 68.3024 20.9046 68.3211 20.8903 68.3321V75.0387Z" fill="white"/>
<path d="M20.231 75.3651C20.4837 73.6123 20.4848 69.82 20.2386 67.9596C20.2507 67.9519 20.2639 67.9354 20.2771 67.9365C21.398 67.9596 22.5332 67.8816 23.6376 68.0299C25.3903 68.2673 26.4211 69.5145 26.5167 71.2849C26.5529 71.9585 26.4969 72.6211 26.2463 73.2552C25.8178 74.3398 25.0068 74.9882 23.8837 75.2299C22.676 75.4892 21.4518 75.298 20.231 75.3651ZM20.8903 75.0387C21.8277 75.0057 22.754 75.0211 23.6683 74.9255C24.5123 74.8376 25.2156 74.4178 25.6947 73.6881C26.2156 72.8947 26.3002 72.0068 26.209 71.0947C26.0595 69.5991 25.1365 68.5673 23.6485 68.375C22.754 68.2596 21.8376 68.3189 20.931 68.3024C20.9178 68.3024 20.9046 68.3211 20.8903 68.3321V75.0387Z" stroke="white" stroke-width="0.5" stroke-miterlimit="10"/>
<path d="M13.2076 75.3704C12.0087 72.8506 11.0285 70.2583 9.7417 67.7979H10.4901C10.4758 68.4792 10.7933 69.055 11.0505 69.6484C11.7241 71.2066 12.4054 72.7616 13.0846 74.3176C13.1164 74.3913 13.1538 74.4638 13.2054 74.5693C13.5604 73.7495 13.8999 72.9649 14.2406 72.1792C14.6835 71.1583 15.1395 70.144 15.5648 69.1154C15.7362 68.7022 15.8406 68.2616 15.9857 67.9957H16.6769C15.689 69.5253 15.0131 71.388 14.1813 73.1781C13.8472 73.8956 13.5384 74.6242 13.2076 75.3704Z" fill="white"/>
<path d="M13.2076 75.3704C12.0087 72.8506 11.0285 70.2583 9.7417 67.7979H10.4901C10.4758 68.4792 10.7933 69.055 11.0505 69.6484C11.7241 71.2066 12.4054 72.7616 13.0846 74.3176C13.1164 74.3913 13.1538 74.4638 13.2054 74.5693C13.5604 73.7495 13.8999 72.9649 14.2406 72.1792C14.6835 71.1583 15.1395 70.144 15.5648 69.1154C15.7362 68.7022 15.8406 68.2616 15.9857 67.9957H16.6769C15.689 69.5253 15.0131 71.388 14.1813 73.1781C13.8472 73.8956 13.5384 74.6242 13.2076 75.3704Z" stroke="white" stroke-width="0.5" stroke-miterlimit="10"/>
<path d="M32.6891 69.068C31.7089 68.0977 30.0715 68.1449 29.2781 69.0021C28.4836 69.8603 28.5001 71.4603 29.3133 72.2911C30.1671 73.1625 31.6704 73.1262 32.6715 72.2109C32.8594 72.557 32.8419 72.6548 32.5133 72.8207C31.4265 73.3691 30.3408 73.4372 29.3034 72.7163C28.4616 72.1317 28.11 70.9856 28.3902 69.8988C28.6419 68.9218 29.4594 68.2142 30.4759 68.068C31.1715 67.9691 31.8232 68.0889 32.4419 68.4043C32.8375 68.6065 32.8353 68.6109 32.6891 69.068Z" fill="white"/>
<path d="M32.6891 69.068C31.7089 68.0977 30.0715 68.1449 29.2781 69.0021C28.4836 69.8603 28.5001 71.4603 29.3133 72.2911C30.1671 73.1625 31.6704 73.1262 32.6715 72.2109C32.8594 72.557 32.8419 72.6548 32.5133 72.8207C31.4265 73.3691 30.3408 73.4372 29.3034 72.7163C28.4616 72.1317 28.11 70.9856 28.3902 69.8988C28.6419 68.9218 29.4594 68.2142 30.4759 68.068C31.1715 67.9691 31.8232 68.0889 32.4419 68.4043C32.8375 68.6065 32.8353 68.6109 32.6891 69.068Z" stroke="white" stroke-width="0.5" stroke-miterlimit="10"/>
<path d="M27.2584 68.0352H27.8057C27.6991 70.4802 27.7002 72.9209 27.8057 75.3703H27.2573C27.4485 74.1483 27.3639 72.9231 27.3639 71.7033C27.365 70.489 27.4452 69.2703 27.2584 68.0352Z" fill="white"/>
<path d="M27.2584 68.0352H27.8057C27.6991 70.4802 27.7002 72.9209 27.8057 75.3703H27.2573C27.4485 74.1483 27.3639 72.9231 27.3639 71.7033C27.365 70.489 27.4452 69.2703 27.2584 68.0352Z" stroke="white" stroke-width="0.5" stroke-miterlimit="10"/>
<path d="M16.4739 75.0395C17.5519 74.9934 18.6145 75.1285 19.6892 74.889C19.6563 75.0538 19.6255 75.2043 19.5914 75.3692H16.0771V70.2153H19.4596C19.4958 70.3747 19.5321 70.534 19.5717 70.7098C18.5387 70.4857 17.5112 70.578 16.4739 70.556C16.4739 71.2494 16.4739 71.701 16.4739 72.3966H19.0508V72.7933H16.4739C16.4739 73.489 16.4739 74.3175 16.4739 75.0395Z" fill="white"/>
<path d="M16.4739 75.0395C17.5519 74.9934 18.6145 75.1285 19.6892 74.889C19.6563 75.0538 19.6255 75.2043 19.5914 75.3692H16.0771V70.2153H19.4596C19.4958 70.3747 19.5321 70.534 19.5717 70.7098C18.5387 70.4857 17.5112 70.578 16.4739 70.556C16.4739 71.2494 16.4739 71.701 16.4739 72.3966H19.0508V72.7933H16.4739C16.4739 73.489 16.4739 74.3175 16.4739 75.0395Z" stroke="white" stroke-width="0.5" stroke-miterlimit="10"/>
<path d="M71.2989 55.4604L70.8693 54.7109L62.9923 41.0725V41.0681C64.3143 38.0747 65.0495 34.767 65.0495 31.2868C65.0495 26.623 63.7319 22.2736 61.4451 18.5835C58.3275 13.5428 53.411 9.73293 47.5913 8.05271C53.1198 9.78568 57.7264 13.6044 60.4902 18.5835C62.2803 21.8055 63.2967 25.5098 63.2967 29.4538C63.2967 32.6285 62.6374 35.6549 61.444 38.3901L50.0077 18.5824L43.4583 7.24502L43.4198 7.17359L43.3814 7.10655L42.5792 5.72743L42.1495 4.97359L41.2473 3.41205L40.8077 2.6582L40.3792 3.40655L39.477 4.96809L39.0429 5.72194L38.322 6.96809L38.1934 7.19227L38.155 7.2593L31.6143 18.5824L20.2484 38.2692C19.088 35.5626 18.4484 32.5835 18.4484 29.4516C18.4484 25.5088 19.4649 21.8044 21.255 18.5813C24.0187 13.6022 28.6253 9.78787 34.1539 8.05491C28.3352 9.73513 23.4176 13.5395 20.3 18.5813C18.0132 22.2714 16.6956 26.6208 16.6956 31.2846C16.6956 34.7219 17.4121 37.9868 18.7055 40.9472L10.7583 54.7098L10.3286 55.4593H13.0022L12.1 57.0252L11.666 57.7747H69.9638L69.5297 57.0252L68.6275 55.4593H71.2989V55.4604ZM67.3275 54.7098H46.877C52.4484 53.2868 57.2451 49.9263 60.5066 45.3967C60.7792 45.0197 61.0418 44.6373 61.2847 44.2461L67.3275 54.7098ZM40.8759 51.8747C33.4627 51.8747 26.8934 48.2802 22.8121 42.7373C22.5066 42.3263 22.2154 41.9066 21.9429 41.4725L35.1616 18.5824L40.0935 10.0373L40.8132 8.79117L41.6099 10.1758L46.4649 18.5824L59.7407 41.5725C59.488 41.9593 59.2297 42.3406 58.9583 42.7087C54.877 48.2659 48.2989 51.8747 40.8759 51.8747ZM32.488 18.5824L38.7561 7.72194L39.0759 7.17249L39.1187 7.10106L39.477 6.47579L39.911 5.72633L40.8132 4.1604L41.7154 5.72633L42.1495 6.47579L42.5022 7.09117L42.5451 7.16809H42.5495L42.9462 7.8604L49.1374 18.5824L61.0572 39.2285C60.7902 39.7824 60.4989 40.3219 60.188 40.8472L47.3341 18.5824L42.0451 9.42194L41.2484 8.03732L40.8143 7.28787L40.3803 8.04172L39.6594 9.28787L34.2935 18.5824L21.4989 40.7472C21.1891 40.2175 20.8978 39.6736 20.6297 39.1142L32.488 18.5824ZM20.4011 44.1461C20.6737 44.5802 20.9594 45.0055 21.2605 45.4208C24.5209 49.9417 29.3143 53.2879 34.8704 54.7109H14.3L20.4011 44.1461ZM11.6264 54.7098L19.0924 41.7824C19.355 42.3406 19.6462 42.8846 19.9561 43.4153L13.4352 54.7098H11.6264ZM68.6638 57.0252H12.9638L13.8704 55.4593H67.7572L68.6638 57.0252ZM68.1912 54.7098L61.7319 43.5153C62.0418 42.9901 62.3286 42.4505 62.6011 41.9022L69.9957 54.7098H68.1912Z" fill="white"/>
<path d="M45.0284 18.5823H36.7559L40.8899 11.4219L45.0284 18.5823Z" fill="white"/>
</svg>
