<svg width="12" height="12" viewBox="0 0 12 12" fill="none" xmlns="http://www.w3.org/2000/svg">
<path d="M10.6667 0.666016H1.33334C0.596656 0.666016 0 1.2627 0 1.99936V9.99936C0 10.736 0.596656 11.3327 1.33334 11.3327H10.6667C11.4033 11.3327 12 10.736 12 9.99936V1.99936C12 1.2627 11.4033 0.666016 10.6667 0.666016ZM5.33334 5.3327H4.33334V4.99936H3V6.99936H4.33334V6.66602H5.33334V7.33267C5.33334 7.69933 5.03669 7.99933 4.66669 7.99933H2.66669C2.29666 7.99936 2 7.69936 2 7.3327V4.66605C2 4.29936 2.29666 3.99936 2.66666 3.99936H4.66666C5.03666 3.99936 5.33331 4.29936 5.33331 4.66602V5.3327H5.33334ZM10 5.3327H9V4.99936H7.66666V6.99936H9V6.66602H10V7.33267C10 7.69936 9.70334 7.99936 9.33334 7.99936H7.33334C6.96334 7.99936 6.66669 7.69936 6.66669 7.3327V4.66605C6.66669 4.29939 6.96334 3.99939 7.33334 3.99939H9.33334C9.70334 3.99939 10 4.29939 10 4.66605V5.3327Z" fill="white"/>
</svg>
