<svg width="41" height="13" viewBox="0 0 41 13" fill="none" xmlns="http://www.w3.org/2000/svg">
<path d="M37.9626 12.8124L37.5782 10.9277H33.2835L32.6001 12.799L29.1578 12.8057C30.7966 8.94109 32.4389 5.07794 34.0847 1.21624C34.3648 0.561211 34.862 0.227836 35.5948 0.231186C36.1552 0.236212 37.0691 0.236211 38.3384 0.232861L41 12.8073L37.9626 12.8124ZM34.2504 8.34613H37.0179L35.9843 3.62191L34.2504 8.34613ZM12.0608 0.22951L15.5219 0.232861L10.1714 12.814L6.66763 12.8107C5.78655 9.48752 4.91643 6.16156 4.05729 2.83286C3.88646 2.16946 3.54821 1.70541 2.89733 1.48595C2.31821 1.28995 1.353 0.988402 0 0.577964V0.234537H5.52988C6.48654 0.234537 7.04517 0.688531 7.22454 1.61997C7.40563 2.55309 7.86004 4.92861 8.59121 8.74652L12.0608 0.22951ZM20.2779 0.232861L17.5412 12.8107L14.2475 12.8073L16.9808 0.22951L20.2779 0.232861ZM26.9575 0C27.9432 0 29.1852 0.301547 29.8993 0.577964L29.3218 3.18634C28.6761 2.9317 27.6135 2.58827 26.72 2.6C25.4217 2.62178 24.6188 3.15619 24.6188 3.66882C24.6188 4.50309 26.0128 4.92358 27.4478 5.83492C29.0861 6.87358 29.3013 7.8067 29.2808 8.82023C29.2586 10.9244 27.4478 13 23.628 13C21.8855 12.9749 21.2568 12.8308 19.8355 12.3366L20.4368 9.6143C21.8838 10.209 22.497 10.3983 23.7339 10.3983C24.8665 10.3983 25.8385 9.94936 25.8471 9.16701C25.8539 8.61082 25.5054 8.33441 24.2344 7.64755C22.9634 6.95902 21.1799 6.0058 21.2038 4.09265C21.2329 1.64343 23.5989 0 26.9592 0H26.9575Z" fill="white"/>
</svg>
