<svg width="20" height="20" viewBox="0 0 20 20" fill="none" xmlns="http://www.w3.org/2000/svg">
<path d="M10 20C4.477 20 0 15.523 0 10C0 4.477 4.477 0 10 0C15.523 0 20 4.477 20 10C19.994 15.52 15.52 19.994 10 20ZM2 10.172C2.02273 12.2862 2.88145 14.3054 4.38848 15.7883C5.8955 17.2712 7.92829 18.0972 10.0425 18.0859C12.1568 18.0745 14.1806 17.2267 15.6716 15.7276C17.1626 14.2286 17.9995 12.2003 17.9995 10.086C17.9995 7.97172 17.1626 5.94341 15.6716 4.44437C14.1806 2.94533 12.1568 2.09748 10.0425 2.08612C7.92829 2.07475 5.8955 2.9008 4.38848 4.38372C2.88145 5.86664 2.02273 7.88584 2 10V10.172ZM8 14.5V5.5L14 10L8 14.5Z" fill="white"/>
</svg>
