<svg width="22" height="20" viewBox="0 0 22 20" fill="none" xmlns="http://www.w3.org/2000/svg">
<path d="M11 20.0004L1.808 10.8084C-0.371997 8.24039 -0.257997 4.38839 2.161 1.96839C3.32102 0.808399 4.87675 0.129937 6.51611 0.0691032C8.15547 0.00826927 9.75721 0.569564 11 1.64039C12.2415 0.569564 13.8419 0.00747451 15.4803 0.0667538C17.1188 0.126033 18.6743 0.802302 19.8353 1.96005C20.9962 3.11779 21.6767 4.67148 21.7404 6.30977C21.8042 7.94807 21.2464 9.54994 20.179 10.7944L11 20.0004ZM18.662 9.49139C19.4008 8.62979 19.7868 7.52083 19.7426 6.38669C19.6983 5.25255 19.2272 4.17702 18.4235 3.37559C17.6198 2.57416 16.5429 2.10604 15.4086 2.06502C14.2744 2.024 13.1665 2.41311 12.307 3.15439L11 4.28239L9.693 3.15439C8.83351 2.41311 7.72564 2.024 6.59138 2.06502C5.45712 2.10604 4.38026 2.57416 3.57655 3.37559C2.77285 4.17702 2.30167 5.25255 2.25744 6.38669C2.2132 7.52083 2.59917 8.62979 3.338 9.49139L3.452 9.62339L11 17.1724L18.548 9.62339L18.662 9.49139Z" fill="white"/>
</svg>
